<svg width="8" height="8" viewBox="0 0 8 8" fill="none" xmlns="http://www.w3.org/2000/svg">
<path d="M4 4.4632L0.567877 7.89532C0.506815 7.95638 0.431796 7.9891 0.34282 7.99346C0.253843 7.99782 0.174463 7.96511 0.104678 7.89532C0.0348925 7.82554 0 7.74834 0 7.66372C0 7.57911 0.0348925 7.50191 0.104678 7.43212L3.5368 4L0.104678 0.567877C0.0436156 0.506815 0.0109038 0.431796 0.0065422 0.34282C0.00218062 0.253843 0.0348925 0.174463 0.104678 0.104678C0.174463 0.0348925 0.251663 0 0.336277 0C0.420892 0 0.498092 0.0348925 0.567877 0.104678L4 3.5368L7.43212 0.104678C7.49319 0.0436156 7.56842 0.0109038 7.65783 0.0065422C7.74637 0.00218062 7.82554 0.0348925 7.89532 0.104678C7.96511 0.174463 8 0.251663 8 0.336277C8 0.420892 7.96511 0.498092 7.89532 0.567877L4.4632 4L7.89532 7.43212C7.95638 7.49319 7.9891 7.56842 7.99346 7.65783C7.99782 7.74637 7.96511 7.82554 7.89532 7.89532C7.82554 7.96511 7.74834 8 7.66372 8C7.57911 8 7.50191 7.96511 7.43212 7.89532L4 4.4632Z" fill="white"/>
</svg>
