<svg width="10" height="2" viewBox="0 0 10 2" fill="none" xmlns="http://www.w3.org/2000/svg">
<path d="M0.646447 1.35355C0.552678 1.25978 0.5 1.13261 0.5 1C0.5 0.867392 0.552678 0.740215 0.646447 0.646447C0.740215 0.552678 0.867392 0.5 1 0.5C1.13261 0.5 1.25978 0.552678 1.35355 0.646447C1.44732 0.740215 1.5 0.867392 1.5 1C1.5 1.13261 1.44732 1.25978 1.35355 1.35355C1.25978 1.44732 1.13261 1.5 1 1.5C0.867392 1.5 0.740215 1.44732 0.646447 1.35355ZM4.64645 1.35355C4.55268 1.25978 4.5 1.13261 4.5 1C4.5 0.867392 4.55268 0.740215 4.64645 0.646447C4.74022 0.552678 4.86739 0.5 5 0.5C5.13261 0.5 5.25978 0.552678 5.35355 0.646447C5.44732 0.740215 5.5 0.867392 5.5 1C5.5 1.13261 5.44732 1.25978 5.35355 1.35355C5.25978 1.44732 5.13261 1.5 5 1.5C4.86739 1.5 4.74022 1.44732 4.64645 1.35355ZM8.64645 1.35355C8.55268 1.25979 8.5 1.13261 8.5 1C8.5 0.867391 8.55268 0.740214 8.64645 0.646447C8.74021 0.552679 8.86739 0.5 9 0.5C9.13261 0.5 9.25979 0.552679 9.35355 0.646447C9.44732 0.740214 9.5 0.867391 9.5 1C9.5 1.13261 9.44732 1.25979 9.35355 1.35355C9.25979 1.44732 9.13261 1.5 9 1.5C8.86739 1.5 8.74021 1.44732 8.64645 1.35355Z" stroke="#999999" stroke-linecap="round" stroke-linejoin="round"/>
</svg>
